# xmcd CD database file
#
# Track frame offsets:
#	187
#	22140
#	52950
#	83022
#	121927
#
# Disc length: 2191 seconds
#
# Revision: 0
# Processed by: cddbd v1.5.1PL0 Copyright (c) Steve Scherf et al.
# Submitted via: CDex 1.50beta8
#
DISCID=35088d05
DTITLE=Benny Golson  - Gone With Golson
DYEAR=1959
DGENRE=Jazz
TTITLE0=Staccato Swing
TTITLE1=Autumn Leaves
TTITLE2=Soul Me
TTITLE3=Blues After Dark
TTITLE4=Jam For Bobbie
EXTD=YEAR: 1959
EXTT0=
EXTT1=
EXTT2=
EXTT3=
EXTT4=
PLAYORDER=
